<svg width="227" height="172" viewBox="0 0 227 172" fill="none" xmlns="http://www.w3.org/2000/svg">
<path d="M210.929 171.743C221.475 154.148 227.031 134.013 227 113.5C227 50.8156 176.184 0 113.5 0C50.8158 0 0.000127037 50.8156 0.000127037 113.5C-0.0306326 134.013 5.52505 154.148 16.071 171.743H210.929Z" fill="#213E56"/>
<path d="M113.5 116.985C119.548 116.985 124.452 112.081 124.452 106.033C124.452 99.9843 119.548 95.0811 113.5 95.0811C107.451 95.0811 102.548 99.9843 102.548 106.033C102.548 112.081 107.451 116.985 113.5 116.985Z" fill="#AFBBC5"/>
<path d="M26.3839 129.43C29.4081 129.43 31.8598 126.978 31.8598 123.954C31.8598 120.929 29.4081 118.478 26.3839 118.478C23.3597 118.478 20.908 120.929 20.908 123.954C20.908 126.978 23.3597 129.43 26.3839 129.43Z" fill="#AFBBC5"/>
<path d="M29.5968 82.0018C32.6211 82.0018 35.0727 79.5502 35.0727 76.5259C35.0727 73.5017 32.6211 71.05 29.5968 71.05C26.5726 71.05 24.121 73.5017 24.121 76.5259C24.121 79.5502 26.5726 82.0018 29.5968 82.0018Z" fill="#AFBBC5"/>
<path d="M56.7781 43.0033C59.8024 43.0033 62.254 40.5516 62.254 37.5274C62.254 34.5031 59.8024 32.0515 56.7781 32.0515C53.7539 32.0515 51.3022 34.5031 51.3022 37.5274C51.3022 40.5516 53.7539 43.0033 56.7781 43.0033Z" fill="#AFBBC5"/>
<path d="M100.163 23.5741C103.187 23.5741 105.639 21.1224 105.639 18.0982C105.639 15.0739 103.187 12.6223 100.163 12.6223C97.1386 12.6223 94.687 15.0739 94.687 18.0982C94.687 21.1224 97.1386 23.5741 100.163 23.5741Z" fill="#AFBBC5"/>
<path d="M147.358 29.2647C150.382 29.2647 152.833 26.8131 152.833 23.7889C152.833 20.7646 150.382 18.313 147.358 18.313C144.333 18.313 141.882 20.7646 141.882 23.7889C141.882 26.8131 144.333 29.2647 147.358 29.2647Z" fill="#AFBBC5"/>
<path d="M184.88 58.4498C187.904 58.4498 190.356 55.9982 190.356 52.9739C190.356 49.9497 187.904 47.498 184.88 47.498C181.856 47.498 179.404 49.9497 179.404 52.9739C179.404 55.9982 181.856 58.4498 184.88 58.4498Z" fill="#AFBBC5"/>
<path d="M202.012 102.792C205.036 102.792 207.488 100.34 207.488 97.3162C207.488 94.292 205.036 91.8403 202.012 91.8403C198.988 91.8403 196.536 94.292 196.536 97.3162C196.536 100.34 198.988 102.792 202.012 102.792Z" fill="#AFBBC5"/>
<path d="M193.859 149.624C196.883 149.624 199.335 147.173 199.335 144.148C199.335 141.124 196.883 138.673 193.859 138.673C190.835 138.673 188.383 141.124 188.383 144.148C188.383 147.173 190.835 149.624 193.859 149.624Z" fill="#AFBBC5"/>
<path d="M113.5 106.033L169.752 63.2212" stroke="#AFBBC5" stroke-width="4" stroke-miterlimit="10"/>
</svg>
