<svg width="190" height="190" viewBox="0 0 190 190" fill="none" xmlns="http://www.w3.org/2000/svg">
<path d="M0 0H190V189.986H0V0Z" fill="#F7DF1E"/>
<path d="M49.9673 158.767L64.5077 149.967C67.3161 154.941 69.8647 159.15 75.987 159.15C81.8565 159.15 85.553 156.854 85.553 147.931V87.2205H103.407V148.176C103.407 166.666 92.5778 175.084 76.7522 175.084C62.4717 175.084 54.1835 167.684 49.9745 158.76L49.9673 158.767ZM113.103 156.847L127.636 148.429C131.463 154.681 136.437 159.258 145.238 159.258C152.638 159.258 157.353 155.562 157.353 150.458C157.353 144.335 152.508 142.169 144.357 138.596L139.895 136.682C127.016 131.203 118.468 124.315 118.468 109.775C118.468 96.3823 128.669 86.1809 144.61 86.1809C155.959 86.1809 164.103 90.1373 169.987 100.461L156.089 109.392C153.028 103.905 149.714 101.739 144.61 101.739C139.383 101.739 136.062 105.053 136.062 109.392C136.062 114.749 139.376 116.915 147.029 120.222L151.49 122.135C166.652 128.633 175.214 135.267 175.214 150.19C175.214 166.261 162.587 175.062 145.613 175.062C129.008 175.062 118.323 167.121 113.125 156.825" fill="black"/>
</svg>
