<svg width="215" height="227" viewBox="0 0 215 227" fill="none" xmlns="http://www.w3.org/2000/svg">
<path d="M107.639 226.997C104.123 226.985 100.623 226.532 97.2203 225.649L96.5496 225.463L95.9274 225.151C73.4338 213.868 54.4571 198.965 39.5245 180.855C27.1634 165.776 17.5261 148.655 11.046 130.262C3.29683 108.242 -0.43128 85.0067 0.0396419 61.6661C0.0491442 61.1762 0.0571861 60.7979 0.0571861 60.5373C0.0571861 49.1913 6.35218 39.236 16.0944 35.1748C23.5506 32.0666 91.2494 4.24713 96.1408 2.2371C105.353 -2.38076 115.18 1.47357 116.753 2.14759C120.28 3.59051 182.864 29.1997 196.388 35.6426C210.326 42.2828 214.045 54.2118 214.045 60.2134C214.045 87.3848 209.341 112.779 200.065 135.689C192.573 154.234 181.954 171.355 168.672 186.305C143.046 215.157 117.412 225.385 117.165 225.475C114.102 226.53 110.878 227.045 107.639 226.997ZM101.611 212.058C103.833 212.557 108.95 213.304 112.285 212.087C116.521 210.542 137.976 199.411 158.024 176.839C185.725 145.652 199.78 106.447 199.801 60.3137C199.751 59.379 199.088 52.7128 190.264 48.5093C177.002 42.1911 111.952 15.5799 111.296 15.3117L111.116 15.2354C109.753 14.6639 105.415 13.4601 102.424 15.028L101.825 15.3072C101.1 15.6052 29.2373 45.1345 21.573 48.3294C16.2117 50.5643 14.3014 56.101 14.3014 60.5373C14.3014 60.8615 14.2931 61.3331 14.2812 61.9426C13.6687 93.5088 20.9699 171.183 101.611 212.058Z" fill="#AFBBC5"/>
<path d="M99.1195 8.71624C99.1195 8.71624 26.6033 38.5135 18.8337 41.7523C11.0641 44.9911 7.17931 52.7643 7.17931 60.5375C7.17931 68.3107 1.35213 169.74 99.1195 218.782C99.1195 218.782 107.993 221.238 114.725 218.782C121.457 216.325 206.923 174.868 206.923 60.2136C206.923 60.2136 206.923 48.5538 193.326 42.0762C179.729 35.5985 113.991 8.71624 113.991 8.71624C113.991 8.71624 105.918 5.15353 99.1195 8.71624Z" fill="#213E56"/>
<path opacity="0.1" d="M106.889 32.0354V190.993C106.889 190.993 33.7255 155.759 34.3729 63.1282L106.889 32.0354Z" fill="black"/>
<path d="M107.843 146.281L84.5369 116.3L98.0906 105.754L109.126 119.949L146.406 80.5764L158.872 92.3932L107.843 146.281Z" fill="white"/>
</svg>
